<svg width="321" height="27" viewBox="0 0 321 27" fill="none" xmlns="http://www.w3.org/2000/svg">
<g filter="url(#filter0_d_28212_156)">
<path d="M11.233 18.2045C14.9723 18.2045 17.9957 15.1811 17.983 11.4545C17.9702 7.72798 14.9723 4.70455 11.233 4.70455C7.51918 4.70455 4.49574 7.72798 4.48295 11.4545C4.47017 15.1811 7.51918 18.2045 11.233 18.2045ZM11.233 16.7216C8.32457 16.7216 5.95312 14.3501 5.96591 11.4609C5.97869 8.55256 8.33736 6.1875 11.233 6.1875C14.1413 6.1875 16.4872 8.53977 16.5 11.4609C16.5128 14.3629 14.1541 16.7216 11.233 16.7216ZM7.5 11.4545C7.5 13.5511 9.20028 15.2514 11.2969 15.2514C13.1122 15.2514 14.5057 13.973 14.7486 12.2727H13.2017C13.0227 13.1484 12.2812 13.7685 11.2969 13.7685C10.0185 13.7685 8.98295 12.733 8.98295 11.4545C8.98295 10.1761 10.0185 9.14062 11.2969 9.14062C12.2812 9.14062 13.157 9.76065 13.3295 10.6364H14.8764C14.6335 8.93608 13.1122 7.65767 11.2969 7.65767C9.20028 7.65767 7.5 9.35795 7.5 11.4545ZM25.8883 18H34.1468V16.5938H28.0616V16.4915L31.002 13.3466C33.252 10.9368 33.9167 9.81179 33.9167 8.3608C33.9167 6.34091 32.2804 4.73011 29.9792 4.73011C27.6845 4.73011 25.9395 6.28977 25.9395 8.59091H27.448C27.448 7.10156 28.4132 6.1108 29.9281 6.1108C31.3471 6.1108 32.4338 6.98011 32.4338 8.3608C32.4338 9.56889 31.7243 10.4638 30.2093 12.1193L25.8883 16.8494V18ZM41.0566 18.179C43.9458 18.179 45.6078 15.7308 45.6078 11.4545C45.6078 7.21023 43.9203 4.73011 41.0566 4.73011C38.193 4.73011 36.5055 7.21023 36.5055 11.4545C36.5055 15.7308 38.1674 18.179 41.0566 18.179ZM41.0566 16.7727C39.1518 16.7727 38.0396 14.8615 38.0396 11.4545C38.0396 8.05398 39.1646 6.1108 41.0566 6.1108C42.9487 6.1108 44.0737 8.05398 44.0737 11.4545C44.0737 14.8615 42.9615 16.7727 41.0566 16.7727ZM48.0368 18H56.2953V16.5938H50.21V16.4915L53.1504 13.3466C55.4004 10.9368 56.0652 9.81179 56.0652 8.3608C56.0652 6.34091 54.4288 4.73011 52.1277 4.73011C49.8329 4.73011 48.0879 6.28977 48.0879 8.59091H49.5964C49.5964 7.10156 50.5616 6.1108 52.0765 6.1108C53.4956 6.1108 54.5822 6.98011 54.5822 8.3608C54.5822 9.56889 53.8727 10.4638 52.3578 12.1193L48.0368 16.8494V18ZM63.2051 18.179C66.0943 18.179 67.7562 15.7308 67.7562 11.4545C67.7562 7.21023 66.0687 4.73011 63.2051 4.73011C60.3414 4.73011 58.6539 7.21023 58.6539 11.4545C58.6539 15.7308 60.3159 18.179 63.2051 18.179ZM63.2051 16.7727C61.3002 16.7727 60.188 14.8615 60.188 11.4545C60.188 8.05398 61.313 6.1108 63.2051 6.1108C65.0971 6.1108 66.2221 8.05398 66.2221 11.4545C66.2221 14.8615 65.1099 16.7727 63.2051 16.7727ZM75.4778 4.90909V18H76.9608V8.05398H77.0886L81.1795 18H82.6113L86.7022 8.05398H86.8301V18H88.313V4.90909H86.421L81.9721 15.7756H81.8187L77.3699 4.90909H75.4778ZM95.4034 18.2045C97.3977 18.2045 98.8551 17.2074 99.3153 15.7244L97.858 15.3153C97.4744 16.3381 96.5859 16.8494 95.4034 16.8494C93.6328 16.8494 92.4119 15.7053 92.3416 13.6023H99.4688V12.9631C99.4688 9.30682 97.2955 8.05398 95.25 8.05398C92.5909 8.05398 90.8267 10.1506 90.8267 13.1676C90.8267 16.1847 92.5653 18.2045 95.4034 18.2045ZM92.3416 12.2983C92.4439 10.7706 93.5241 9.40909 95.25 9.40909C96.8864 9.40909 97.9347 10.6364 97.9347 12.2983H92.3416ZM108.718 10.3807C108.245 8.98722 107.184 8.05398 105.241 8.05398C103.17 8.05398 101.636 9.23011 101.636 10.892C101.636 12.2472 102.441 13.1548 104.244 13.5767L105.88 13.9602C106.871 14.1903 107.337 14.6634 107.337 15.3409C107.337 16.1847 106.442 16.875 105.036 16.875C103.803 16.875 103.029 16.3445 102.761 15.2898L101.329 15.6477C101.68 17.3161 103.055 18.2045 105.062 18.2045C107.344 18.2045 108.897 16.9581 108.897 15.2642C108.897 13.8963 108.04 13.0334 106.289 12.6051L104.832 12.2472C103.668 11.9595 103.144 11.5696 103.144 10.8153C103.144 9.97159 104.039 9.35795 105.241 9.35795C106.558 9.35795 107.101 10.0866 107.363 10.7642L108.718 10.3807ZM115.438 8.18182H113.341V5.82955H111.833V8.18182H110.35V9.46023H111.833V15.5966C111.833 17.3097 113.213 18.1278 114.492 18.1278C115.054 18.1278 115.412 18.0256 115.617 17.9489L115.31 16.5938C115.182 16.6193 114.977 16.6705 114.645 16.6705C113.98 16.6705 113.341 16.4659 113.341 15.1875V9.46023H115.438V8.18182ZM121.59 18.2045C124.249 18.2045 126.039 16.1847 126.039 13.142C126.039 10.0739 124.249 8.05398 121.59 8.05398C118.931 8.05398 117.141 10.0739 117.141 13.142C117.141 16.1847 118.931 18.2045 121.59 18.2045ZM121.59 16.8494C119.57 16.8494 118.65 15.1108 118.65 13.142C118.65 11.1733 119.57 9.40909 121.59 9.40909C123.61 9.40909 124.53 11.1733 124.53 13.142C124.53 15.1108 123.61 16.8494 121.59 16.8494ZM133.609 18H135.194V12.8864H138.058C138.173 12.8864 138.281 12.8864 138.39 12.88L141.151 18H142.992L140.033 12.5923C141.701 12.0234 142.481 10.6619 142.481 8.9233C142.481 6.60938 141.1 4.90909 138.032 4.90909H133.609V18ZM135.194 11.4545V6.31534H137.981C140.103 6.31534 140.921 7.35085 140.921 8.9233C140.921 10.4957 140.103 11.4545 138.006 11.4545H135.194ZM151.105 13.9858C151.105 15.8267 149.699 16.6705 148.574 16.6705C147.321 16.6705 146.426 15.75 146.426 14.3182V8.18182H144.918V14.4205C144.918 16.9261 146.247 18.1278 148.088 18.1278C149.571 18.1278 150.543 17.3352 151.003 16.3381H151.105V18H152.614V8.18182H151.105V13.9858ZM162.331 10.3807C161.858 8.98722 160.797 8.05398 158.854 8.05398C156.783 8.05398 155.249 9.23011 155.249 10.892C155.249 12.2472 156.054 13.1548 157.857 13.5767L159.493 13.9602C160.484 14.1903 160.951 14.6634 160.951 15.3409C160.951 16.1847 160.056 16.875 158.65 16.875C157.416 16.875 156.642 16.3445 156.374 15.2898L154.942 15.6477C155.294 17.3161 156.668 18.2045 158.675 18.2045C160.957 18.2045 162.51 16.9581 162.51 15.2642C162.51 13.8963 161.654 13.0334 159.902 12.6051L158.445 12.2472C157.282 11.9595 156.757 11.5696 156.757 10.8153C156.757 9.97159 157.652 9.35795 158.854 9.35795C160.171 9.35795 160.714 10.0866 160.976 10.7642L162.331 10.3807ZM171.736 10.3807C171.263 8.98722 170.202 8.05398 168.258 8.05398C166.187 8.05398 164.653 9.23011 164.653 10.892C164.653 12.2472 165.459 13.1548 167.261 13.5767L168.898 13.9602C169.888 14.1903 170.355 14.6634 170.355 15.3409C170.355 16.1847 169.46 16.875 168.054 16.875C166.82 16.875 166.047 16.3445 165.778 15.2898L164.346 15.6477C164.698 17.3161 166.072 18.2045 168.079 18.2045C170.361 18.2045 171.915 16.9581 171.915 15.2642C171.915 13.8963 171.058 13.0334 169.307 12.6051L167.849 12.2472C166.686 11.9595 166.162 11.5696 166.162 10.8153C166.162 9.97159 167.057 9.35795 168.258 9.35795C169.575 9.35795 170.118 10.0866 170.381 10.7642L171.736 10.3807ZM174.185 18H175.694V8.18182H174.185V18ZM174.952 6.54545C175.54 6.54545 176.026 6.08523 176.026 5.52273C176.026 4.96023 175.54 4.5 174.952 4.5C174.364 4.5 173.879 4.96023 173.879 5.52273C173.879 6.08523 174.364 6.54545 174.952 6.54545ZM181.346 18.2301C183.059 18.2301 183.954 17.3097 184.261 16.6705H184.338V18H185.846V11.5312C185.846 8.41193 183.468 8.05398 182.215 8.05398C180.732 8.05398 179.045 8.56534 178.278 10.3551L179.71 10.8665C180.042 10.1506 180.828 9.38352 182.267 9.38352C183.654 9.38352 184.338 10.1186 184.338 11.3778V11.429C184.338 12.1577 183.596 12.0938 181.806 12.3239C179.985 12.5604 177.997 12.9631 177.997 15.2131C177.997 17.1307 179.48 18.2301 181.346 18.2301ZM181.576 16.875C180.374 16.875 179.505 16.3381 179.505 15.2898C179.505 14.1392 180.553 13.7812 181.73 13.6278C182.369 13.5511 184.082 13.3722 184.338 13.0653V14.446C184.338 15.6733 183.366 16.875 181.576 16.875Z" fill="#545454"/>
</g>
<defs>
<filter id="filter0_d_28212_156" x="0.470215" y="4.5" width="189.376" height="21.7302" filterUnits="userSpaceOnUse" color-interpolation-filters="sRGB">
<feFlood flood-opacity="0" result="BackgroundImageFix"/>
<feColorMatrix in="SourceAlpha" type="matrix" values="0 0 0 0 0 0 0 0 0 0 0 0 0 0 0 0 0 0 127 0" result="hardAlpha"/>
<feOffset dy="4"/>
<feGaussianBlur stdDeviation="2"/>
<feComposite in2="hardAlpha" operator="out"/>
<feColorMatrix type="matrix" values="0 0 0 0 0 0 0 0 0 0 0 0 0 0 0 0 0 0 0.25 0"/>
<feBlend mode="normal" in2="BackgroundImageFix" result="effect1_dropShadow_28212_156"/>
<feBlend mode="normal" in="SourceGraphic" in2="effect1_dropShadow_28212_156" result="shape"/>
</filter>
</defs>
</svg>
